# xmcd
#
# Track frame offsets: 
#        150
#        17850
#        32250
#        45975
#        68175
#        82875
#        94650
#        103650
#        119250
#        134250
#        148650
#        164100
#        177825
#        193125
#
# Disc length: 2738 seconds
#
# Revision: 0
# Processed by: cddbd v1.5PL3 Copyright (c) Steve Scherf et al.
# Submitted via: ExactAudioCopy v0.95a5
#
DISCID=b90ab00e
DTITLE=The Dowden Sisters - Hymns And Sacred Songs--Vol. 1
DYEAR=2002
DGENRE=Bluegrass
TTITLE0=The Old Fashioned Meeting
TTITLE1=Neath The Old Olive Tree
TTITLE2=He Will Set Your Fields On Fire
TTITLE3=Sweet Hour Of Prayer
TTITLE4=My Mother's Prayer
TTITLE5=When I Can Read My Title Clear
TTITLE6=I'll Fly Away
TTITLE7=Against A Thorn
TTITLE8=Rock Of Ages
TTITLE9=I Am Resolved
TTITLE10=Abide With Me
TTITLE11=Have You Prayed It Through?
TTITLE12=Ezekiel
TTITLE13=The Star-Spangled Banner
EXTD=
EXTT0=
EXTT1=
EXTT2=
EXTT3=
EXTT4=
EXTT5=
EXTT6=
EXTT7=
EXTT8=
EXTT9=
EXTT10=
EXTT11=
EXTT12=
EXTT13=
PLAYORDER=
